<?xml version="1.0" encoding="UTF-8"?>
<svg xmlns="http://www.w3.org/2000/svg" xmlns:xlink="http://www.w3.org/1999/xlink" width="50px" height="33px" viewBox="0 0 49 33" version="1.1">
    <g id="surface1">
        <path style=" stroke:none;fill-rule:nonzero;fill:rgb(0%,0%,0%);fill-opacity:1;" d="M 25.519531 1.796875 C 25.898438 2.171875 26.234375 2.644531 26.5 3.113281 C 26.632812 3.0625 26.75 3.003906 26.871094 2.925781 C 27.976562 2.242188 29.269531 2.039062 30.535156 2.355469 C 31.691406 2.660156 32.632812 3.453125 33.253906 4.476562 C 33.820312 5.453125 34.027344 6.597656 33.75 7.707031 C 33.667969 8.011719 33.5625 8.300781 33.449219 8.59375 C 33.304688 8.953125 33.238281 9.25 33.339844 9.632812 C 33.375 9.820312 33.378906 10.011719 33.386719 10.203125 C 33.398438 10.410156 33.4375 10.613281 33.476562 10.8125 C 34.363281 10.339844 34.363281 10.339844 35.242188 9.855469 C 35.632812 9.636719 36.03125 9.421875 36.425781 9.210938 C 36.773438 9.023438 37.121094 8.835938 37.46875 8.640625 C 37.535156 8.605469 37.601562 8.566406 37.667969 8.53125 C 37.773438 8.472656 37.875 8.414062 37.980469 8.355469 C 38.09375 8.292969 38.207031 8.226562 38.324219 8.164062 L 38.429688 8.105469 L 38.523438 8.050781 L 38.609375 8.003906 C 38.691406 7.980469 38.691406 7.980469 38.769531 8.011719 C 38.847656 8.058594 38.847656 8.058594 38.894531 8.203125 C 38.949219 8.5 38.933594 8.804688 38.933594 9.109375 C 38.929688 9.175781 38.929688 9.242188 38.929688 9.308594 C 38.929688 9.484375 38.929688 9.660156 38.929688 9.832031 C 38.925781 10.113281 38.925781 10.394531 38.925781 10.675781 C 38.925781 10.773438 38.925781 10.871094 38.921875 10.96875 C 38.921875 11.027344 38.921875 11.085938 38.921875 11.148438 L 38.921875 11.304688 C 38.925781 11.453125 38.941406 11.585938 38.964844 11.730469 C 39.113281 11.785156 39.238281 11.761719 39.394531 11.734375 L 39.476562 11.722656 C 39.535156 11.714844 39.59375 11.703125 39.652344 11.695312 C 39.746094 11.679688 39.839844 11.664062 39.933594 11.648438 C 40.167969 11.613281 40.402344 11.574219 40.632812 11.539062 C 40.828125 11.507812 41.027344 11.476562 41.222656 11.445312 C 41.316406 11.429688 41.40625 11.414062 41.496094 11.402344 C 42.195312 11.289062 42.195312 11.289062 42.453125 11.332031 C 42.609375 11.449219 42.621094 11.625 42.648438 11.8125 C 42.671875 11.976562 42.691406 12.140625 42.710938 12.304688 C 42.722656 12.394531 42.730469 12.484375 42.742188 12.570312 C 42.757812 12.707031 42.773438 12.84375 42.789062 12.976562 C 42.835938 13.375 42.882812 13.773438 42.933594 14.171875 L 42.949219 14.308594 C 43.058594 15.222656 43.171875 16.136719 43.285156 17.054688 L 43.300781 17.164062 C 43.394531 17.917969 43.488281 18.675781 43.582031 19.429688 C 43.628906 19.804688 43.675781 20.179688 43.722656 20.554688 C 43.734375 20.625 43.742188 20.699219 43.75 20.773438 C 43.867188 21.6875 43.980469 22.601562 44.089844 23.519531 C 44.101562 23.605469 44.113281 23.691406 44.121094 23.777344 C 44.164062 24.113281 44.203125 24.449219 44.242188 24.785156 C 44.257812 24.910156 44.273438 25.039062 44.289062 25.167969 C 44.296875 25.222656 44.300781 25.277344 44.308594 25.335938 C 44.375 25.929688 44.375 25.929688 44.648438 26.449219 L 44.730469 26.558594 L 44.804688 26.65625 C 44.84375 26.707031 44.882812 26.761719 44.921875 26.816406 C 45.054688 26.761719 45.148438 26.679688 45.25 26.585938 C 45.710938 26.167969 46.179688 25.949219 46.800781 25.964844 C 47.359375 25.996094 47.796875 26.339844 48.175781 26.734375 C 48.574219 27.222656 48.691406 27.792969 48.648438 28.410156 C 48.601562 28.699219 48.488281 29.007812 48.253906 29.191406 C 48.085938 29.273438 47.914062 29.3125 47.734375 29.351562 L 47.617188 29.378906 C 46.605469 29.597656 45.183594 29.753906 44.246094 29.195312 C 43.945312 28.980469 43.734375 28.722656 43.644531 28.355469 C 43.628906 28.25 43.628906 28.15625 43.632812 28.046875 C 43.648438 27.289062 43.574219 26.558594 43.480469 25.804688 C 43.460938 25.65625 43.441406 25.507812 43.425781 25.359375 C 43.355469 24.808594 43.289062 24.257812 43.21875 23.710938 C 43.199219 23.566406 43.183594 23.417969 43.164062 23.273438 C 42.925781 21.375 42.6875 19.476562 42.445312 17.582031 C 42.378906 17.066406 42.3125 16.550781 42.246094 16.035156 C 42.203125 15.691406 42.160156 15.351562 42.117188 15.011719 L 42.105469 14.910156 C 42.058594 14.542969 42.011719 14.171875 41.964844 13.804688 C 41.949219 13.695312 41.9375 13.585938 41.921875 13.476562 C 41.902344 13.332031 41.886719 13.191406 41.867188 13.046875 C 41.859375 12.96875 41.847656 12.890625 41.835938 12.8125 L 41.820312 12.671875 L 41.804688 12.546875 C 41.792969 12.449219 41.792969 12.449219 41.746094 12.371094 C 41.375 12.351562 41.023438 12.417969 40.65625 12.480469 C 40.527344 12.503906 40.394531 12.527344 40.265625 12.546875 L 40.171875 12.566406 C 39.996094 12.59375 39.820312 12.621094 39.640625 12.644531 L 39.53125 12.660156 C 39.46875 12.667969 39.40625 12.675781 39.339844 12.683594 C 39.210938 12.703125 39.128906 12.722656 39.027344 12.800781 C 38.929688 12.9375 38.921875 13.0625 38.921875 13.226562 L 38.921875 13.582031 C 38.921875 13.726562 38.921875 13.867188 38.921875 14.007812 C 38.921875 14.109375 38.921875 14.207031 38.921875 14.308594 C 38.921875 14.554688 38.921875 14.800781 38.921875 15.046875 C 38.921875 15.25 38.921875 15.449219 38.921875 15.648438 L 38.921875 15.734375 C 38.921875 15.792969 38.921875 15.851562 38.921875 15.910156 C 38.921875 16.453125 38.921875 16.996094 38.921875 17.539062 C 38.921875 18.007812 38.921875 18.472656 38.921875 18.9375 C 38.921875 19.476562 38.921875 20.019531 38.921875 20.5625 C 38.921875 20.617188 38.921875 20.675781 38.921875 20.734375 L 38.921875 20.820312 C 38.921875 21.019531 38.921875 21.21875 38.921875 21.417969 C 38.921875 21.6875 38.921875 21.957031 38.921875 22.226562 C 38.921875 22.328125 38.921875 22.425781 38.921875 22.523438 C 38.917969 23.214844 38.917969 23.214844 38.964844 23.902344 C 39.148438 23.796875 39.296875 23.691406 39.441406 23.53125 C 39.855469 23.101562 40.40625 22.746094 41.011719 22.734375 C 41.582031 22.726562 41.992188 22.890625 42.417969 23.285156 C 42.84375 23.738281 43.023438 24.292969 43.019531 24.914062 C 43.007812 25.261719 42.925781 25.585938 42.683594 25.839844 C 42.460938 26.019531 42.121094 26.050781 41.847656 26.101562 L 41.746094 26.121094 C 41.304688 26.207031 40.871094 26.226562 40.421875 26.226562 L 40.335938 26.226562 C 38.699219 26.226562 38.699219 26.226562 38.179688 25.777344 C 37.945312 25.523438 37.851562 25.304688 37.855469 24.957031 L 37.855469 24.871094 C 37.859375 24.648438 37.890625 24.429688 37.925781 24.210938 C 38.007812 23.617188 37.992188 23.011719 37.988281 22.414062 C 37.988281 22.3125 37.988281 22.210938 37.988281 22.113281 C 37.992188 21.867188 37.988281 21.625 37.988281 21.382812 C 37.988281 21.183594 37.988281 20.984375 37.988281 20.789062 L 37.988281 20.703125 C 37.988281 20.644531 37.988281 20.585938 37.988281 20.527344 C 37.988281 19.992188 37.988281 19.453125 37.988281 18.917969 C 37.988281 18.457031 37.988281 17.996094 37.988281 17.535156 C 37.988281 17 37.988281 16.464844 37.988281 15.925781 C 37.988281 15.871094 37.988281 15.8125 37.988281 15.757812 L 37.988281 15.671875 C 37.988281 15.472656 37.988281 15.273438 37.988281 15.078125 C 37.992188 14.8125 37.988281 14.546875 37.988281 14.277344 C 37.988281 14.179688 37.988281 14.082031 37.988281 13.984375 C 37.988281 13.851562 37.988281 13.71875 37.988281 13.585938 L 37.988281 13.46875 C 37.988281 13.273438 37.980469 13.082031 37.945312 12.890625 L 37.792969 12.914062 C 37.242188 13.007812 36.6875 13.089844 36.132812 13.171875 C 36.058594 13.183594 35.984375 13.195312 35.90625 13.207031 C 35.597656 13.253906 35.285156 13.300781 34.972656 13.34375 C 34.78125 13.375 34.589844 13.402344 34.394531 13.429688 C 34.324219 13.441406 34.25 13.453125 34.179688 13.464844 C 33.527344 13.519531 33.527344 13.519531 32.9375 13.734375 C 32.871094 13.835938 32.863281 13.929688 32.847656 14.046875 C 33.128906 14.128906 33.410156 14.214844 33.691406 14.300781 C 33.824219 14.339844 33.960938 14.378906 34.097656 14.421875 C 34.660156 14.589844 35.222656 14.761719 35.785156 14.921875 C 35.867188 14.945312 35.949219 14.96875 36.03125 14.992188 C 36.183594 15.035156 36.332031 15.078125 36.484375 15.121094 C 36.550781 15.140625 36.621094 15.160156 36.6875 15.179688 L 36.777344 15.203125 C 36.945312 15.253906 37.054688 15.304688 37.160156 15.441406 C 37.207031 15.535156 37.207031 15.585938 37.207031 15.6875 L 37.207031 16.039062 C 37.203125 16.652344 37.183594 17.261719 37.164062 17.871094 C 37.160156 18.054688 37.152344 18.234375 37.148438 18.417969 C 37.140625 18.6875 37.132812 18.957031 37.125 19.226562 C 37.101562 20.070312 37.078125 20.914062 37.054688 21.757812 L 37.050781 21.878906 C 37.011719 23.222656 36.980469 24.5625 36.957031 25.90625 C 36.953125 26.027344 36.949219 26.152344 36.949219 26.277344 C 36.925781 27.492188 36.921875 28.710938 36.925781 29.925781 L 36.976562 29.878906 C 37.050781 29.804688 37.128906 29.734375 37.203125 29.660156 L 37.28125 29.585938 C 37.773438 29.113281 38.292969 28.824219 38.980469 28.832031 C 39.476562 28.851562 39.871094 29.074219 40.207031 29.4375 C 40.597656 29.902344 40.769531 30.351562 40.769531 30.964844 C 40.742188 31.3125 40.667969 31.675781 40.449219 31.949219 C 40.320312 32.054688 40.203125 32.101562 40.046875 32.148438 L 39.960938 32.171875 C 39.378906 32.34375 38.824219 32.410156 38.222656 32.410156 L 38.132812 32.410156 C 37.707031 32.410156 37.300781 32.394531 36.886719 32.28125 L 36.746094 32.246094 C 36.460938 32.164062 36.207031 32.089844 36.042969 31.828125 C 35.78125 31.320312 35.832031 30.71875 35.910156 30.160156 C 36.011719 29.40625 36.011719 28.644531 36.023438 27.882812 C 36.027344 27.679688 36.03125 27.476562 36.035156 27.273438 C 36.042969 26.976562 36.046875 26.683594 36.050781 26.386719 C 36.066406 25.617188 36.082031 24.851562 36.097656 24.082031 C 36.101562 23.847656 36.109375 23.609375 36.113281 23.371094 C 36.128906 22.628906 36.144531 21.886719 36.164062 21.140625 C 36.183594 20.5625 36.191406 19.984375 36.203125 19.402344 C 36.210938 18.8125 36.21875 18.21875 36.234375 17.628906 C 36.238281 17.539062 36.242188 17.449219 36.242188 17.359375 C 36.246094 17.234375 36.25 17.109375 36.253906 16.984375 C 36.257812 16.867188 36.261719 16.753906 36.265625 16.640625 L 36.269531 16.539062 C 36.273438 16.34375 36.261719 16.203125 36.140625 16.042969 C 35.886719 15.875 35.570312 15.808594 35.285156 15.726562 L 35.136719 15.683594 C 35.007812 15.648438 34.878906 15.609375 34.75 15.574219 C 34.621094 15.535156 34.496094 15.5 34.367188 15.460938 C 34.167969 15.402344 33.96875 15.34375 33.769531 15.289062 C 33.574219 15.230469 33.382812 15.175781 33.191406 15.117188 L 33.058594 15.074219 C 32.976562 15.050781 32.890625 15.023438 32.808594 15 C 32.582031 14.929688 32.441406 14.902344 32.222656 15.003906 C 32.132812 15.09375 32.132812 15.09375 32.0625 15.210938 C 31.914062 15.421875 31.761719 15.617188 31.59375 15.808594 L 31.527344 15.890625 C 31.371094 16.070312 31.371094 16.070312 31.320312 16.121094 C 31.414062 16.148438 31.511719 16.175781 31.605469 16.203125 L 31.695312 16.230469 C 31.902344 16.289062 32.105469 16.339844 32.3125 16.390625 L 32.460938 16.429688 C 32.5625 16.453125 32.660156 16.476562 32.757812 16.5 L 32.898438 16.535156 L 33.019531 16.5625 C 33.128906 16.601562 33.175781 16.625 33.242188 16.71875 C 33.242188 17.003906 33.136719 17.265625 33.046875 17.53125 C 33.015625 17.625 32.984375 17.714844 32.953125 17.804688 C 32.921875 17.90625 32.886719 18.011719 32.851562 18.113281 C 32.683594 18.621094 32.519531 19.125 32.351562 19.632812 C 32.324219 19.714844 32.296875 19.796875 32.269531 19.878906 C 31.867188 21.109375 31.46875 22.34375 31.085938 23.582031 C 31.203125 23.582031 31.246094 23.566406 31.351562 23.523438 C 31.691406 23.40625 32.0625 23.40625 32.390625 23.558594 C 32.792969 23.792969 33.082031 24.125 33.226562 24.574219 C 33.292969 24.945312 33.28125 25.363281 33.082031 25.6875 C 32.792969 26.046875 32.144531 26.082031 31.714844 26.128906 C 30.054688 26.257812 30.054688 26.257812 29.636719 25.9375 C 29.488281 25.722656 29.53125 25.421875 29.570312 25.179688 C 29.71875 24.429688 30.023438 23.699219 30.285156 22.984375 C 30.410156 22.648438 30.523438 22.308594 30.636719 21.964844 C 30.6875 21.804688 30.738281 21.648438 30.792969 21.488281 L 30.824219 21.386719 C 30.945312 21.019531 31.0625 20.65625 31.183594 20.292969 C 31.261719 20.066406 31.335938 19.835938 31.410156 19.609375 C 31.472656 19.414062 31.539062 19.21875 31.601562 19.023438 C 31.667969 18.828125 31.730469 18.636719 31.792969 18.445312 C 31.816406 18.371094 31.839844 18.296875 31.867188 18.226562 C 31.898438 18.125 31.929688 18.023438 31.964844 17.925781 L 31.992188 17.835938 C 32.050781 17.664062 32.085938 17.5 32.105469 17.316406 C 31.285156 17.015625 30.515625 16.90625 29.691406 17.257812 C 29.574219 17.3125 29.460938 17.371094 29.34375 17.429688 C 28.472656 17.871094 27.578125 18.15625 26.617188 18.316406 L 26.527344 18.332031 C 24.9375 18.585938 23.21875 18.441406 21.675781 17.996094 L 21.570312 17.964844 C 20.789062 17.734375 20.035156 17.382812 19.367188 16.90625 L 19.285156 16.847656 L 19.214844 16.796875 C 18.96875 16.6875 18.6875 16.792969 18.441406 16.855469 L 18.324219 16.886719 C 18.203125 16.914062 18.078125 16.949219 17.957031 16.980469 C 17.871094 17 17.789062 17.019531 17.703125 17.042969 C 17.5 17.09375 17.296875 17.144531 17.089844 17.199219 C 17.070312 17.460938 17.144531 17.675781 17.226562 17.925781 L 17.269531 18.058594 C 17.3125 18.179688 17.351562 18.304688 17.390625 18.425781 C 17.433594 18.554688 17.476562 18.683594 17.519531 18.8125 C 17.589844 19.027344 17.660156 19.246094 17.734375 19.464844 C 17.832031 19.765625 17.933594 20.066406 18.03125 20.367188 C 18.367188 21.394531 18.710938 22.425781 19.066406 23.445312 C 19.609375 25.003906 19.609375 25.003906 19.613281 25.425781 L 19.617188 25.566406 C 19.59375 25.730469 19.5625 25.789062 19.441406 25.898438 C 19.199219 26.011719 18.964844 26.035156 18.703125 26.03125 L 18.59375 26.03125 C 18.515625 26.035156 18.441406 26.03125 18.363281 26.03125 C 18.25 26.03125 18.132812 26.03125 18.019531 26.035156 C 16.621094 26.035156 16.621094 26.035156 16.132812 25.566406 C 15.90625 25.308594 15.882812 25.035156 15.898438 24.703125 C 15.933594 24.269531 16.15625 23.949219 16.464844 23.664062 C 16.726562 23.457031 16.976562 23.371094 17.3125 23.367188 L 17.464844 23.363281 C 17.617188 23.371094 17.742188 23.414062 17.886719 23.464844 L 18.011719 23.507812 L 18.109375 23.542969 L 18.078125 23.441406 C 17.808594 22.621094 17.539062 21.804688 17.269531 20.984375 C 17.140625 20.589844 17.011719 20.195312 16.882812 19.800781 C 16.769531 19.453125 16.65625 19.109375 16.542969 18.765625 C 16.480469 18.582031 16.421875 18.398438 16.363281 18.214844 C 16.304688 18.042969 16.25 17.871094 16.191406 17.699219 C 16.171875 17.636719 16.152344 17.574219 16.128906 17.511719 C 16.03125 17.210938 15.933594 16.914062 15.875 16.601562 C 16.140625 16.484375 16.398438 16.398438 16.675781 16.332031 L 16.789062 16.304688 C 16.90625 16.273438 17.023438 16.246094 17.144531 16.214844 C 17.261719 16.1875 17.378906 16.15625 17.496094 16.128906 C 17.570312 16.109375 17.644531 16.089844 17.71875 16.074219 C 17.878906 16.03125 18.035156 15.992188 18.1875 15.921875 L 18.148438 15.867188 C 17.851562 15.480469 17.566406 15.085938 17.289062 14.683594 C 16.992188 14.710938 16.714844 14.792969 16.433594 14.878906 C 16.378906 14.894531 16.328125 14.910156 16.273438 14.925781 C 16.132812 14.96875 15.992188 15.011719 15.851562 15.054688 C 15.707031 15.097656 15.558594 15.140625 15.414062 15.183594 C 15.242188 15.238281 15.070312 15.289062 14.898438 15.339844 C 14.589844 15.433594 14.277344 15.527344 13.964844 15.617188 C 13.875 15.644531 13.785156 15.671875 13.691406 15.699219 C 13.636719 15.714844 13.582031 15.730469 13.527344 15.746094 C 13.457031 15.765625 13.382812 15.789062 13.308594 15.808594 L 13.191406 15.84375 C 13.089844 15.882812 13.019531 15.925781 12.9375 16 C 12.890625 16.144531 12.894531 16.253906 12.898438 16.40625 L 12.898438 16.492188 C 12.902344 16.59375 12.90625 16.691406 12.90625 16.789062 C 12.910156 16.859375 12.910156 16.929688 12.910156 17 C 12.914062 17.148438 12.917969 17.300781 12.921875 17.453125 C 12.929688 17.695312 12.933594 17.9375 12.941406 18.179688 C 12.945312 18.476562 12.953125 18.773438 12.960938 19.070312 C 12.972656 19.597656 12.984375 20.125 12.996094 20.652344 L 13 20.765625 C 13.003906 20.957031 13.007812 21.148438 13.011719 21.339844 C 13.019531 21.6875 13.027344 22.03125 13.035156 22.378906 C 13.035156 22.492188 13.039062 22.609375 13.039062 22.722656 C 13.050781 23.113281 13.058594 23.5 13.066406 23.890625 C 13.074219 24.238281 13.082031 24.589844 13.089844 24.9375 C 13.09375 25.125 13.097656 25.3125 13.101562 25.5 C 13.117188 26.199219 13.132812 26.894531 13.144531 27.589844 L 13.144531 27.738281 C 13.148438 27.957031 13.152344 28.171875 13.15625 28.390625 C 13.164062 28.925781 13.203125 29.449219 13.265625 29.980469 C 13.292969 30.25 13.300781 30.511719 13.300781 30.78125 L 13.300781 30.894531 C 13.296875 31.300781 13.242188 31.609375 12.949219 31.90625 C 12.238281 32.46875 10.921875 32.382812 10.085938 32.273438 C 8.972656 32.117188 8.972656 32.117188 8.679688 31.800781 C 8.398438 31.410156 8.363281 30.929688 8.40625 30.460938 C 8.496094 29.878906 8.820312 29.398438 9.277344 29.050781 C 9.699219 28.765625 10.082031 28.675781 10.585938 28.730469 C 11.238281 28.867188 11.738281 29.335938 12.191406 29.808594 C 12.265625 29.730469 12.234375 29.621094 12.234375 29.519531 L 12.234375 29.300781 C 12.234375 29.175781 12.234375 29.050781 12.234375 28.925781 L 12.234375 28.792969 C 12.234375 27.785156 12.21875 26.777344 12.199219 25.769531 C 12.195312 25.621094 12.195312 25.476562 12.191406 25.328125 C 12.167969 24.011719 12.140625 22.699219 12.101562 21.382812 C 12.082031 20.574219 12.0625 19.769531 12.050781 18.964844 C 12.03125 17.527344 12.03125 17.527344 11.964844 16.089844 C 11.957031 15.957031 11.949219 15.828125 11.945312 15.695312 L 11.941406 15.585938 C 11.964844 15.425781 12.027344 15.324219 12.144531 15.222656 C 12.234375 15.160156 12.308594 15.128906 12.414062 15.101562 L 12.527344 15.066406 L 12.648438 15.03125 L 12.773438 14.996094 C 12.914062 14.953125 13.054688 14.914062 13.191406 14.875 C 13.289062 14.847656 13.386719 14.816406 13.484375 14.789062 C 13.632812 14.746094 13.78125 14.703125 13.933594 14.65625 C 14.410156 14.519531 14.890625 14.375 15.367188 14.230469 C 15.496094 14.195312 15.625 14.15625 15.753906 14.117188 C 15.832031 14.09375 15.910156 14.070312 15.988281 14.046875 L 16.097656 14.015625 C 16.257812 13.964844 16.421875 13.917969 16.582031 13.863281 L 16.667969 13.835938 C 16.746094 13.808594 16.746094 13.808594 16.816406 13.726562 C 16.625 13.578125 16.410156 13.5625 16.179688 13.53125 L 16.042969 13.511719 C 15.894531 13.488281 15.746094 13.464844 15.597656 13.445312 C 15.492188 13.429688 15.386719 13.414062 15.285156 13.398438 C 15.121094 13.375 14.953125 13.347656 14.789062 13.324219 C 14.40625 13.269531 14.019531 13.210938 13.632812 13.148438 C 13.453125 13.121094 13.273438 13.09375 13.09375 13.066406 C 12.949219 13.042969 12.804688 13.023438 12.660156 13 C 12.523438 12.976562 12.386719 12.957031 12.25 12.933594 C 12.175781 12.925781 12.101562 12.914062 12.027344 12.902344 C 11.769531 12.863281 11.511719 12.824219 11.25 12.847656 C 11.1875 12.910156 11.207031 12.976562 11.207031 13.0625 L 11.207031 13.441406 C 11.203125 13.59375 11.203125 13.746094 11.203125 13.894531 C 11.203125 14.003906 11.203125 14.109375 11.203125 14.21875 C 11.203125 14.511719 11.203125 14.804688 11.203125 15.101562 C 11.203125 15.285156 11.203125 15.46875 11.203125 15.652344 C 11.203125 16.160156 11.203125 16.667969 11.203125 17.175781 L 11.203125 17.375 C 11.203125 17.441406 11.203125 17.507812 11.203125 17.574219 L 11.203125 17.671875 C 11.203125 18.203125 11.199219 18.734375 11.199219 19.261719 C 11.199219 19.808594 11.199219 20.351562 11.199219 20.898438 C 11.199219 21.203125 11.199219 21.511719 11.199219 21.816406 C 11.195312 22.078125 11.195312 22.335938 11.195312 22.597656 C 11.195312 22.730469 11.195312 22.863281 11.195312 22.996094 C 11.195312 23.523438 11.207031 24.027344 11.304688 24.546875 C 11.363281 24.902344 11.308594 25.191406 11.144531 25.507812 C 10.714844 26.027344 9.953125 26.074219 9.324219 26.128906 C 8.5 26.1875 7.113281 26.25 6.429688 25.699219 C 6.144531 25.304688 6.109375 24.765625 6.171875 24.296875 C 6.273438 23.769531 6.519531 23.3125 6.9375 22.984375 C 7.402344 22.6875 7.882812 22.5625 8.429688 22.625 C 8.976562 22.757812 9.402344 23.121094 9.800781 23.507812 C 9.914062 23.621094 10.03125 23.722656 10.152344 23.820312 C 10.234375 23.582031 10.242188 23.363281 10.242188 23.109375 L 10.242188 22.976562 C 10.242188 22.832031 10.242188 22.6875 10.242188 22.539062 C 10.242188 22.4375 10.242188 22.332031 10.242188 22.226562 C 10.242188 21.972656 10.242188 21.722656 10.242188 21.46875 C 10.242188 21.261719 10.242188 21.054688 10.242188 20.847656 L 10.242188 20.761719 C 10.242188 20.699219 10.242188 20.640625 10.242188 20.582031 C 10.242188 20.023438 10.242188 19.464844 10.242188 18.90625 C 10.242188 18.394531 10.242188 17.882812 10.246094 17.371094 C 10.246094 16.84375 10.246094 16.320312 10.246094 15.796875 C 10.246094 15.5 10.246094 15.207031 10.246094 14.910156 C 10.246094 14.632812 10.246094 14.355469 10.246094 14.078125 C 10.246094 13.976562 10.246094 13.875 10.246094 13.773438 C 10.246094 13.636719 10.246094 13.496094 10.246094 13.359375 L 10.246094 13.234375 C 10.246094 13.023438 10.234375 12.871094 10.113281 12.6875 C 9.882812 12.550781 9.628906 12.527344 9.367188 12.488281 L 9.230469 12.46875 C 9.132812 12.453125 9.039062 12.4375 8.945312 12.425781 C 8.796875 12.402344 8.652344 12.378906 8.507812 12.359375 C 8.414062 12.34375 8.320312 12.328125 8.230469 12.316406 L 8.097656 12.296875 L 7.976562 12.277344 L 7.867188 12.261719 C 7.640625 12.226562 7.640625 12.226562 7.4375 12.3125 C 7.351562 12.433594 7.339844 12.523438 7.320312 12.667969 L 7.3125 12.75 C 7.300781 12.839844 7.289062 12.925781 7.277344 13.015625 C 7.269531 13.082031 7.261719 13.148438 7.253906 13.214844 C 7.238281 13.359375 7.21875 13.503906 7.203125 13.648438 C 7.171875 13.894531 7.140625 14.140625 7.113281 14.386719 C 7.066406 14.765625 7.019531 15.144531 6.972656 15.519531 C 6.894531 16.183594 6.8125 16.84375 6.730469 17.507812 L 6.71875 17.597656 C 6.496094 19.421875 6.261719 21.246094 6.027344 23.074219 C 5.839844 24.527344 5.839844 24.527344 5.65625 25.984375 C 5.648438 26.050781 5.640625 26.113281 5.632812 26.179688 C 5.558594 26.75 5.523438 27.308594 5.53125 27.882812 C 5.53125 28.28125 5.457031 28.589844 5.179688 28.886719 C 4.613281 29.417969 3.839844 29.417969 3.109375 29.417969 L 3.023438 29.417969 C 1.234375 29.417969 1.234375 29.417969 0.738281 28.925781 C 0.476562 28.503906 0.460938 27.949219 0.554688 27.476562 C 0.699219 26.882812 1.058594 26.449219 1.566406 26.136719 C 2.015625 25.875 2.472656 25.761719 2.984375 25.902344 C 3.382812 26.042969 3.679688 26.265625 3.976562 26.558594 C 4.074219 26.660156 4.074219 26.660156 4.195312 26.734375 C 4.527344 26.394531 4.695312 26.039062 4.78125 25.574219 L 4.804688 25.46875 C 4.875 25.082031 4.921875 24.695312 4.964844 24.304688 C 4.976562 24.226562 4.984375 24.144531 4.996094 24.066406 C 5.015625 23.890625 5.035156 23.71875 5.054688 23.546875 C 5.105469 23.125 5.15625 22.699219 5.207031 22.273438 C 5.226562 22.125 5.242188 21.976562 5.261719 21.824219 C 5.394531 20.71875 5.527344 19.609375 5.667969 18.503906 C 5.679688 18.402344 5.691406 18.300781 5.703125 18.199219 C 5.765625 17.699219 5.828125 17.195312 5.890625 16.691406 C 5.949219 16.226562 6.003906 15.757812 6.0625 15.292969 C 6.113281 14.882812 6.164062 14.476562 6.214844 14.066406 C 6.246094 13.824219 6.273438 13.585938 6.304688 13.34375 C 6.332031 13.121094 6.359375 12.898438 6.386719 12.675781 C 6.398438 12.59375 6.40625 12.511719 6.417969 12.433594 C 6.429688 12.320312 6.445312 12.210938 6.457031 12.097656 L 6.46875 12.003906 C 6.492188 11.839844 6.515625 11.679688 6.542969 11.515625 L 6.558594 11.417969 C 6.589844 11.320312 6.625 11.277344 6.703125 11.210938 C 6.925781 11.175781 7.167969 11.222656 7.386719 11.257812 L 7.484375 11.269531 C 7.582031 11.285156 7.683594 11.300781 7.785156 11.316406 C 7.847656 11.328125 7.910156 11.335938 7.972656 11.347656 C 8.203125 11.382812 8.433594 11.417969 8.664062 11.453125 L 10.230469 11.691406 L 10.230469 7.902344 C 10.386719 7.820312 10.386719 7.820312 10.480469 7.851562 L 10.585938 7.910156 L 10.707031 7.972656 L 10.832031 8.046875 L 10.96875 8.117188 C 11.101562 8.191406 11.234375 8.265625 11.367188 8.339844 C 11.4375 8.378906 11.507812 8.417969 11.582031 8.457031 C 11.683594 8.515625 11.785156 8.570312 11.886719 8.625 C 12.207031 8.808594 12.53125 8.984375 12.859375 9.15625 C 13.246094 9.367188 13.632812 9.578125 14.015625 9.792969 C 14.363281 9.984375 14.710938 10.171875 15.0625 10.363281 C 15.503906 10.601562 15.945312 10.84375 16.386719 11.09375 L 16.386719 10.996094 C 16.410156 9.816406 16.410156 9.816406 16.566406 9.25 C 16.785156 8.433594 16.542969 7.574219 16.367188 6.769531 C 16.089844 5.328125 16.449219 3.851562 17.226562 2.636719 C 17.394531 2.378906 17.589844 2.144531 17.796875 1.914062 L 17.890625 1.808594 C 18.707031 0.9375 19.914062 0.339844 21.089844 0.199219 L 21.214844 0.183594 C 22.847656 0.03125 24.34375 0.667969 25.519531 1.796875 M 11.25 9.335938 C 11.160156 9.472656 11.160156 9.523438 11.160156 9.679688 L 11.160156 9.972656 L 11.15625 10.125 C 11.15625 10.234375 11.15625 10.339844 11.15625 10.449219 C 11.15625 10.585938 11.15625 10.722656 11.15625 10.863281 C 11.152344 10.996094 11.152344 11.125 11.152344 11.257812 L 11.152344 11.671875 C 11.164062 11.773438 11.164062 11.773438 11.242188 11.835938 C 11.335938 11.894531 11.398438 11.914062 11.507812 11.929688 L 11.613281 11.949219 L 11.730469 11.964844 L 11.855469 11.984375 C 11.992188 12.007812 12.128906 12.027344 12.265625 12.046875 C 12.359375 12.0625 12.457031 12.078125 12.550781 12.089844 C 12.804688 12.128906 13.054688 12.167969 13.304688 12.207031 C 13.507812 12.238281 13.710938 12.269531 13.914062 12.300781 C 14.789062 12.4375 15.664062 12.570312 16.542969 12.6875 L 16.542969 12.535156 L 16.546875 12.449219 C 16.539062 12.324219 16.507812 12.265625 16.425781 12.171875 C 16.171875 11.972656 15.890625 11.828125 15.609375 11.683594 C 15.480469 11.617188 15.355469 11.554688 15.226562 11.488281 L 15.152344 11.445312 C 14.9375 11.332031 14.722656 11.21875 14.511719 11.097656 C 14.15625 10.898438 13.800781 10.707031 13.445312 10.515625 C 13.078125 10.316406 12.714844 10.117188 12.351562 9.914062 C 12.089844 9.773438 11.832031 9.628906 11.570312 9.488281 L 11.484375 9.441406 C 11.375 9.367188 11.375 9.367188 11.25 9.335938 M 37.703125 9.503906 C 37.652344 9.53125 37.601562 9.558594 37.554688 9.589844 L 37.472656 9.632812 C 37.386719 9.679688 37.296875 9.730469 37.210938 9.777344 C 37.148438 9.8125 37.089844 9.84375 37.027344 9.878906 C 36.90625 9.945312 36.785156 10.011719 36.664062 10.082031 C 36.519531 10.164062 36.371094 10.242188 36.222656 10.324219 C 35.855469 10.527344 35.492188 10.730469 35.128906 10.9375 C 34.804688 11.121094 34.480469 11.289062 34.152344 11.460938 C 33.617188 11.730469 33.617188 11.730469 33.265625 12.207031 C 33.234375 12.359375 33.238281 12.496094 33.242188 12.648438 C 33.363281 12.6875 33.449219 12.6875 33.574219 12.671875 L 33.679688 12.65625 L 33.796875 12.636719 L 33.917969 12.617188 C 34.054688 12.597656 34.1875 12.578125 34.320312 12.554688 C 34.414062 12.542969 34.507812 12.527344 34.601562 12.515625 C 34.796875 12.484375 34.992188 12.453125 35.1875 12.425781 C 35.4375 12.386719 35.6875 12.347656 35.9375 12.308594 C 36.128906 12.28125 36.324219 12.25 36.515625 12.222656 C 36.605469 12.207031 36.699219 12.191406 36.792969 12.179688 C 36.921875 12.160156 37.050781 12.140625 37.179688 12.117188 L 37.292969 12.101562 C 37.632812 12.058594 37.632812 12.058594 37.941406 11.917969 C 38.035156 11.773438 38.027344 11.601562 38.023438 11.433594 L 38.023438 11.308594 L 38.015625 11.027344 C 38.011719 10.878906 38.011719 10.730469 38.007812 10.582031 C 38.003906 10.480469 38.003906 10.378906 38 10.277344 C 37.996094 10.03125 37.992188 9.785156 37.984375 9.535156 C 37.855469 9.457031 37.855469 9.457031 37.703125 9.503906 "/>
        <path style=" stroke:none;fill-rule:nonzero;fill:rgb(99.607843%,99.607843%,99.607843%);fill-opacity:1;" d="M 17.835938 9.894531 C 17.992188 10.003906 18.128906 10.128906 18.265625 10.253906 C 19.34375 11.144531 20.519531 11.523438 21.890625 11.574219 C 21.980469 11.578125 22.066406 11.582031 22.152344 11.585938 C 22.761719 11.625 23.132812 11.554688 23.640625 11.21875 C 23.941406 11.035156 24.335938 11.03125 24.675781 10.996094 C 25.21875 10.933594 25.601562 10.824219 26.039062 10.492188 C 26.207031 10.371094 26.335938 10.359375 26.539062 10.375 C 26.640625 10.417969 26.734375 10.460938 26.828125 10.515625 C 26.886719 10.546875 26.941406 10.574219 26.996094 10.605469 L 27.082031 10.648438 C 27.484375 10.859375 27.898438 11.027344 28.339844 11.132812 L 28.453125 11.160156 C 29.382812 11.34375 30.71875 11.28125 31.542969 10.746094 C 31.625 10.683594 31.625 10.683594 31.683594 10.617188 C 31.789062 10.550781 31.867188 10.558594 31.988281 10.574219 C 32.089844 10.628906 32.089844 10.628906 32.191406 10.703125 L 32.289062 10.773438 C 32.425781 10.894531 32.488281 10.992188 32.511719 11.175781 C 32.503906 12.5625 32.035156 14.003906 31.125 15.042969 L 31.039062 15.144531 C 30.710938 15.527344 30.351562 15.839844 29.9375 16.117188 C 29.871094 16.160156 29.808594 16.203125 29.742188 16.246094 C 28.316406 17.191406 26.484375 17.578125 24.804688 17.570312 L 24.699219 17.570312 C 24.167969 17.566406 23.652344 17.542969 23.128906 17.4375 L 23.023438 17.417969 C 21.214844 17.089844 19.429688 16.28125 18.355469 14.710938 C 17.832031 13.933594 17.542969 13.09375 17.367188 12.171875 L 17.335938 12.015625 C 17.277344 11.640625 17.277344 11.257812 17.273438 10.875 L 17.273438 10.792969 C 17.269531 10.472656 17.277344 10.191406 17.40625 9.894531 C 17.546875 9.824219 17.6875 9.847656 17.835938 9.894531 "/>
        <path style=" stroke:none;fill-rule:nonzero;fill:rgb(99.607843%,99.607843%,99.607843%);fill-opacity:1;" d="M 24.617188 1.875 C 24.753906 1.992188 24.882812 2.113281 25.007812 2.234375 L 25.097656 2.316406 C 25.378906 2.582031 25.585938 2.902344 25.792969 3.230469 L 25.863281 3.34375 C 25.9375 3.480469 25.945312 3.601562 25.910156 3.75 C 25.863281 3.84375 25.808594 3.925781 25.75 4.007812 C 25.023438 5.023438 24.714844 6.136719 24.867188 7.386719 C 24.9375 7.792969 25.0625 8.179688 25.234375 8.546875 C 25.324219 8.746094 25.351562 8.921875 25.324219 9.136719 C 25.28125 9.230469 25.28125 9.230469 25.226562 9.300781 L 25.160156 9.378906 L 25.019531 9.535156 C 24.253906 10.359375 23.132812 10.863281 22.023438 10.90625 C 20.652344 10.933594 19.433594 10.496094 18.425781 9.535156 C 17.515625 8.625 16.941406 7.34375 16.925781 6.042969 C 16.921875 4.75 17.277344 3.550781 18.109375 2.554688 L 18.191406 2.453125 C 18.386719 2.21875 18.613281 2.023438 18.855469 1.835938 L 18.945312 1.761719 C 20.648438 0.484375 22.972656 0.523438 24.617188 1.875 "/>
        <path style=" stroke:none;fill-rule:nonzero;fill:rgb(99.607843%,99.607843%,99.607843%);fill-opacity:1;" d="M 31.90625 3.847656 L 32.027344 3.949219 L 32.109375 4.019531 C 32.789062 4.664062 33.167969 5.625 33.203125 6.558594 C 33.222656 7.59375 32.886719 8.617188 32.183594 9.378906 L 32.09375 9.476562 C 31.46875 10.160156 30.554688 10.574219 29.636719 10.613281 L 29.519531 10.621094 C 28.503906 10.648438 27.476562 10.34375 26.71875 9.636719 C 26.644531 9.566406 26.570312 9.492188 26.5 9.417969 L 26.410156 9.328125 C 25.832031 8.699219 25.472656 7.804688 25.441406 6.941406 L 25.4375 6.851562 C 25.410156 5.890625 25.753906 5.007812 26.34375 4.269531 L 26.40625 4.183594 C 26.984375 3.453125 27.933594 3 28.835938 2.882812 C 29.96875 2.789062 31.03125 3.105469 31.90625 3.847656 "/>
        <path style=" stroke:none;fill-rule:nonzero;fill:rgb(0%,0%,0%);fill-opacity:1;" d="M 23.675781 4.238281 C 24.140625 4.640625 24.441406 5.167969 24.539062 5.785156 C 24.589844 6.523438 24.433594 7.195312 23.960938 7.773438 C 23.554688 8.238281 22.996094 8.542969 22.382812 8.585938 C 21.644531 8.617188 21.113281 8.464844 20.535156 7.976562 C 20.304688 7.761719 20.140625 7.503906 19.992188 7.222656 L 19.9375 7.125 C 19.796875 6.835938 19.765625 6.59375 19.773438 6.273438 L 19.777344 6.136719 C 19.785156 5.785156 19.828125 5.476562 19.953125 5.148438 L 19.996094 5.035156 C 20.113281 4.765625 20.296875 4.558594 20.5 4.347656 L 20.570312 4.28125 C 21.421875 3.460938 22.785156 3.5625 23.675781 4.238281 M 31.007812 5.507812 L 31.09375 5.574219 C 31.433594 5.878906 31.675781 6.402344 31.710938 6.863281 L 31.722656 6.949219 C 31.75 7.425781 31.496094 7.925781 31.214844 8.289062 C 30.914062 8.621094 30.476562 8.875 30.03125 8.902344 C 29.679688 8.917969 29.335938 8.929688 29.007812 8.777344 L 28.902344 8.730469 C 28.414062 8.488281 28.058594 8.070312 27.878906 7.550781 C 27.863281 7.492188 27.847656 7.4375 27.832031 7.382812 L 27.804688 7.285156 C 27.738281 6.742188 27.871094 6.273438 28.183594 5.824219 C 28.527344 5.402344 28.9375 5.183594 29.460938 5.082031 C 30.03125 5.027344 30.554688 5.140625 31.007812 5.507812 "/>
        <path style=" stroke:none;fill-rule:nonzero;fill:rgb(99.607843%,99.607843%,99.607843%);fill-opacity:1;" d="M 23.6875 5.253906 C 23.882812 5.425781 23.941406 5.625 23.960938 5.882812 C 23.941406 6.066406 23.84375 6.183594 23.714844 6.304688 C 23.566406 6.40625 23.425781 6.390625 23.25 6.363281 C 23.09375 6.328125 23.003906 6.269531 22.910156 6.136719 C 22.8125 5.945312 22.820312 5.753906 22.855469 5.546875 C 22.933594 5.390625 23.039062 5.296875 23.183594 5.210938 C 23.375 5.167969 23.507812 5.160156 23.6875 5.253906 M 29.558594 6.265625 C 29.675781 6.320312 29.769531 6.382812 29.832031 6.503906 C 29.84375 6.71875 29.847656 6.847656 29.714844 7.023438 C 29.554688 7.128906 29.429688 7.128906 29.242188 7.101562 C 29.027344 6.984375 29.027344 6.984375 28.96875 6.863281 C 28.949219 6.667969 28.9375 6.511719 29.042969 6.34375 C 29.207031 6.191406 29.347656 6.21875 29.558594 6.265625 "/>
    </g>
</svg>
